<svg width="142" height="24" viewBox="0 0 142 24" fill="none" xmlns="http://www.w3.org/2000/svg">
<g clip-path="url(#clip0_72_597)">
<path fill-rule="evenodd" clip-rule="evenodd" d="M8.65617 8.06298C8.76099 7.30262 8.67784 6.72539 8.40804 6.34697C8.13487 5.96734 7.68187 5.77748 7.05239 5.77748H6.83939L6.22588 10.3483C6.97027 10.3313 7.53613 10.1438 7.91972 9.7766C8.31022 9.40933 8.55723 8.84343 8.65617 8.06298ZM13.0104 10.5762C12.3592 11.3623 11.4566 11.998 10.3045 12.4708L13.0104 20.9608H7.26287L5.80128 13.5477L4.80755 20.9608H-0.612061L1.95144 1.80093H8.1884C10.3 1.80093 11.8891 2.32876 12.966 3.38893C14.0349 4.44791 14.4526 5.88752 14.2113 7.70695C14.0588 8.82316 13.658 9.78444 13.0104 10.5762ZM21.5513 12.5493C21.6526 11.7912 21.606 11.2186 21.4147 10.8334C21.2224 10.4538 20.8775 10.2674 20.3937 10.2674C20.0123 10.2674 19.6776 10.4538 19.3885 10.8266C19.1062 11.1983 18.8524 11.7711 18.635 12.5493H21.5513ZM24.865 8.81754C25.7268 9.93052 26.0056 11.6027 25.7096 13.8374C25.671 14.0991 25.6483 14.3001 25.6231 14.4394C25.6015 14.5707 25.5731 14.6943 25.5378 14.8078H18.3333L18.3094 14.993C18.1762 15.9801 18.1943 16.6899 18.3617 17.12C18.5358 17.5502 18.8751 17.7691 19.3885 17.7691C19.771 17.7691 20.0909 17.6411 20.3606 17.3951C20.6326 17.1492 20.8547 16.7707 21.0243 16.2598H25.1712C24.7671 17.8387 23.9863 19.0763 22.8194 19.9827C21.6583 20.8866 20.2536 21.3369 18.6293 21.3369C16.71 21.3369 15.3144 20.7306 14.44 19.5121C13.5636 18.289 13.2779 16.5529 13.5796 14.3001C13.8858 12.0339 14.6393 10.2741 15.8562 9.02869C17.0663 7.77543 18.619 7.15101 20.4972 7.15101C22.5462 7.15101 23.9977 7.70695 24.865 8.81754ZM33.5563 20.7485C33.1772 20.9495 32.7685 21.0978 32.3439 21.1932C31.9182 21.2909 31.439 21.3369 30.9198 21.3369C29.1622 21.3369 27.8668 20.7092 27.0189 19.4435C26.1776 18.1813 25.9021 16.4484 26.1936 14.244C26.4849 12.0878 27.2384 10.3618 28.452 9.07366C29.6643 7.78446 31.1419 7.15101 32.8698 7.15101C33.3468 7.15101 33.7907 7.197 34.187 7.27783C34.5888 7.37442 34.9644 7.50142 35.3036 7.68787L34.7526 11.7947C34.5978 11.6948 34.4339 11.6206 34.2643 11.5735C34.0912 11.5252 33.9046 11.5038 33.6997 11.5038C33.1885 11.5038 32.7401 11.7464 32.3723 12.2361C32.0035 12.7246 31.7599 13.3939 31.6461 14.244C31.5312 15.0964 31.588 15.7433 31.8146 16.1733C32.0354 16.6068 32.4315 16.828 32.9905 16.828C33.1487 16.828 33.324 16.8033 33.5119 16.7528C33.6997 16.7068 33.9001 16.6416 34.1141 16.5551L33.5563 20.7485ZM34.7435 20.9608L37.5404 0.0546875H42.4705L39.676 20.9608H34.7435ZM49.4771 14.244C49.6045 13.2996 49.5989 12.5774 49.4532 12.0878C49.313 11.5881 49.0388 11.3421 48.6415 11.3421C48.2499 11.3421 47.9186 11.5881 47.6512 12.0766C47.3837 12.5673 47.1787 13.2905 47.0546 14.244C46.9272 15.2008 46.9294 15.9163 47.0648 16.3991C47.1993 16.8774 47.4678 17.12 47.8641 17.12C48.2716 17.12 48.6051 16.8751 48.8795 16.3788C49.1571 15.8813 49.3575 15.1716 49.4771 14.244ZM50.4856 7.52382H55.4157L53.6183 20.9608H48.6915L48.8885 19.4829C48.3136 20.1297 47.7479 20.5946 47.1845 20.8945C46.6289 21.191 46.0392 21.3369 45.4302 21.3369C44.0757 21.3369 43.0966 20.7171 42.4979 19.4716C41.8958 18.2296 41.7443 16.4856 42.0392 14.244C42.3442 11.9856 42.9578 10.2427 43.881 9.00841C44.803 7.7664 45.9527 7.15101 47.329 7.15101C47.9493 7.15101 48.4947 7.297 48.9773 7.59008C49.4475 7.88317 49.8913 8.34703 50.291 8.98159L50.4856 7.52382ZM55.089 20.9608L56.8865 7.52382H61.6243L61.3601 9.51836C61.9236 8.74906 62.5439 8.17966 63.2157 7.80566C63.8895 7.44188 64.6443 7.25875 65.4786 7.25875C66.2583 7.25875 66.8776 7.44299 67.342 7.81911C67.8009 8.1898 68.0945 8.75698 68.2243 9.51836C68.7081 8.74906 69.2739 8.17966 69.9158 7.80566C70.5567 7.44188 71.3 7.25875 72.1402 7.25875C73.1806 7.25875 73.9297 7.56087 74.3952 8.17515C74.8586 8.7862 75.0145 9.68564 74.8562 10.8581L73.5062 20.9608H68.5714L69.6177 13.1378C69.6779 12.7211 69.6381 12.4089 69.5174 12.2069C69.3945 12.0047 69.1736 11.9093 68.8663 11.9093C68.5817 11.9093 68.3427 12.0193 68.1515 12.2552C67.9636 12.4854 67.8384 12.8087 67.7815 13.2165L66.7467 20.9608H61.8451L62.8867 13.1378C62.947 12.7211 62.9128 12.4089 62.791 12.2069C62.6658 12.0047 62.445 11.9093 62.1364 11.9093C61.8405 11.9093 61.5969 12.0193 61.3977 12.2552C61.2065 12.4854 61.0811 12.8087 61.0277 13.2165L59.9964 20.9608H55.089ZM83.2891 12.5493C83.3891 11.7912 83.3437 11.2186 83.1479 10.8334C82.9578 10.4538 82.6197 10.2674 82.1325 10.2674C81.75 10.2674 81.4165 10.4538 81.1308 10.8266C80.8428 11.1983 80.5889 11.7711 80.3704 12.5493H83.2891ZM86.6038 8.81754C87.4634 9.93052 87.7456 11.6027 87.4486 13.8374C87.4144 14.0991 87.3882 14.3001 87.3643 14.4394C87.3438 14.5707 87.3096 14.6943 87.2766 14.8078H80.0711L80.0471 14.993C79.915 15.9801 79.9333 16.6899 80.1005 17.12C80.2725 17.5502 80.6128 17.7691 81.1308 17.7691C81.5133 17.7691 81.8297 17.6411 82.0983 17.3951C82.367 17.1492 82.5923 16.7707 82.7631 16.2598H86.9124C86.5082 17.8387 85.7205 19.0763 84.556 19.9827C83.3937 20.8866 81.9971 21.3369 80.3647 21.3369C78.4465 21.3369 77.0509 20.7306 76.1779 19.5121C75.3003 18.289 75.0167 16.5529 75.3173 14.3001C75.6234 12.0339 76.3758 10.2741 77.5962 9.02869C78.8006 7.77543 80.3544 7.15101 82.2361 7.15101C84.2817 7.15101 85.7365 7.70695 86.6038 8.81754Z" fill="white"/>
<path fill-rule="evenodd" clip-rule="evenodd" d="M94.7234 14.2743H96.8786L96.7366 7.17239L94.7234 14.2743ZM100.512 1.80102L102.199 20.9609H96.9151L96.8786 18.1432H93.6761L92.883 20.9609H87.5942L94.4057 1.80102H100.512ZM112.355 11.2681C112.622 9.25448 112.675 7.89008 112.504 7.16225C112.339 6.43682 111.935 6.07517 111.271 6.07517C110.607 6.07517 110.093 6.43903 109.728 7.17691C109.363 7.91137 109.053 9.27365 108.783 11.2681C108.515 13.2524 108.466 14.6125 108.637 15.3458C108.81 16.078 109.219 16.4485 109.887 16.4485C110.545 16.4485 111.055 16.0869 111.41 15.3637C111.768 14.6438 112.087 13.2783 112.355 11.2681ZM116.892 4.02901C117.931 5.76411 118.237 8.22021 117.813 11.3961C117.565 13.2243 117.139 14.8135 116.531 16.1555C115.927 17.5054 115.125 18.6429 114.131 19.5672L116.201 22.0064L111.588 24.0548L109.862 21.3101C109.801 21.3101 109.707 21.3179 109.577 21.3269C109.45 21.3337 109.352 21.337 109.289 21.337C106.955 21.337 105.266 20.4734 104.227 18.7394C103.179 17.0135 102.865 14.5642 103.286 11.3961C103.713 8.23035 104.675 5.77545 106.185 4.03915C107.689 2.29632 109.596 1.4248 111.898 1.4248C114.203 1.4248 115.864 2.29632 116.892 4.02901ZM118.504 14.1094L120.152 1.80102H125.575L123.861 14.6191C123.786 15.183 123.831 15.594 124.001 15.8612C124.169 16.1251 124.462 16.2599 124.888 16.2599C125.317 16.2599 125.658 16.1251 125.896 15.8612C126.138 15.594 126.29 15.183 126.366 14.6191L128.079 1.80102H133.526L131.881 14.1094C131.55 16.6068 130.765 18.4408 129.532 19.5986C128.297 20.7632 126.53 21.337 124.206 21.337C121.903 21.337 120.293 20.7632 119.377 19.5986C118.465 18.4408 118.172 16.6068 118.504 14.1094ZM132.796 20.9609L135.351 1.80102H140.776L138.214 20.9609H132.796Z" fill="white"/>
</g>
<defs>
<clipPath id="clip0_72_597">
<rect width="142" height="24" fill="white"/>
</clipPath>
</defs>
</svg>
